<svg id="Layer_1" data-name="Layer 1" xmlns="http://www.w3.org/2000/svg" width="378.63mm" height="88.45mm" viewBox="0 0 1073.3 250.72">
  <defs>
    <style>
      .cls-1 {
        fill: #fbba00;
      }

      .cls-2 {
        fill: #00b3bc;
      }

      .cls-3 {
        fill: #95c11f;
      }

      .cls-4 {
        fill: #ef7d00;
      }

      .cls-5 {
        fill: #e83273;
      }

      .cls-6 {
        fill: #57555b;
      }

      .cls-7 {
        fill: #007b88;
      }

      .cls-8 {
        fill: #569204;
      }

      .cls-9 {
        fill: #e95a00;
      }

      .cls-10 {
        fill: #d30934;
      }
    </style>
  </defs>
  <title>logo</title>
  <path class="cls-1" d="M719.64,347a84,84,0,0,0-75.81-47.9H550.47c-23.59,0-36.06,13.67-36.06,39.53V445.12l31.16,77.32a6,6,0,0,1-.75,5.83c-.18.23-.37.47-.58.72-3.22,3.9-8.72,7.92-15.31,10.87a47.23,47.23,0,0,0,20.58,4.53c13.56,0,25.41-5.28,31.78-13.15a15.48,15.48,0,0,0,3.32-9.76V467.55h28.31c21.48,77.85,70.72,76.79,70.72,76.79,17.93,0,29.27-7.15,35.36-13.38a5.49,5.49,0,0,0,0-7.68l0,0c-17.83-17.91-29.81-40.39-35.53-66.16a84,84,0,0,0,16.69-11.76,152.06,152.06,0,0,1-2-24.57C698.13,393.06,705.66,367.53,719.64,347Zm-97.2,68.73h-39V350.41h38.21c25.87,0,39,11,39,32.83C660.66,395.36,655.69,415.69,622.44,415.69Z" transform="translate(-58.63 -295.59)"/>
  <path class="cls-2" d="M295.93,529.59q-.35-.39-.63-.75a6,6,0,0,1-.89-5.89l30.71-79.41V321.9a15.43,15.43,0,0,0-3.33-9.76c-6.35-7.85-18.17-13.12-31.7-13.12s-25.34,5.27-31.7,13.12a15.48,15.48,0,0,0-3.32,9.76v69.94h-75V321.9a15.48,15.48,0,0,0-3.32-9.76C170.38,304.29,158.57,299,145,299s-25.35,5.27-31.7,13.12A15.48,15.48,0,0,0,110,321.9V521.48a15.48,15.48,0,0,0,3.32,9.76c6.36,7.84,18.17,13.11,31.7,13.11s25.34-5.27,31.7-13.11a15.48,15.48,0,0,0,3.32-9.76V448.9h75v72.58a15.48,15.48,0,0,0,3.32,9.76c6.36,7.84,18.18,13.11,31.7,13.11a47.19,47.19,0,0,0,20.54-4.52C304.12,536.82,298.79,532.85,295.93,529.59Z" transform="translate(-58.63 -295.59)"/>
  <path class="cls-3" d="M517.73,531.24a15.48,15.48,0,0,1-3.32-9.76V445.12L463.2,318l-.05-.15c-2.89-9.55-8.67-18.87-44-18.87-34.95,0-42.52,9.07-45.49,18.87l-.08.25-48.5,125.4v77.94a15.43,15.43,0,0,1-3.33,9.76,32.68,32.68,0,0,1-11.16,8.59,46.59,46.59,0,0,0,19.18,4.56c17.5,0,30.74-11.45,38.28-33.13l8.16-21.49h84.37l7.74,20.64c8.76,22.54,22.42,34,40.59,34a49.49,49.49,0,0,0,20-4.53A32.66,32.66,0,0,1,517.73,531.24ZM390.79,438l27.08-70,27.07,70Z" transform="translate(-58.63 -295.59)"/>
  <path class="cls-4" d="M881.84,529.59c-.22-.26-.43-.51-.62-.75a6,6,0,0,1-.89-5.89l23.61-61.05A58.2,58.2,0,0,0,884.86,454a6,6,0,0,0-6.13,2.48,61.94,61.94,0,1,1-1-72.5,6,6,0,0,0,6.08,2.36c6-1.3,15.64-4.64,23.25-11.12,7.22-6.16,10.88-13.72,10.88-22.47,0-12.49-7.83-26.12-20.94-36.45-12-9.46-34.33-20.72-72.53-20.72-36.84,0-68.48,12.18-91.49,35.24A111.33,111.33,0,0,0,719.64,347a83.57,83.57,0,0,1,8.09,33.76c0,.77.06,1.53.06,2.3a83.68,83.68,0,0,1-27.7,62.3c4.25,25.88,15.38,48.33,32.81,65.84,22.9,23,54.42,35.14,91.16,35.14,28.32,0,48.05-6.18,61.4-13.3A30.41,30.41,0,0,1,881.84,529.59Z" transform="translate(-58.63 -295.59)"/>
  <path class="cls-5" d="M1131.48,522.44,1049.12,318l0-.15c-2.89-9.55-8.67-18.87-44-18.87-35,0-42.52,9.07-45.49,18.87l-.09.25L903.94,461.9a43.32,43.32,0,0,1,4.15,3.09c7.28,6.14,11,13.75,11,22.61,0,9.86-5.6,24.86-21.3,37.37a80,80,0,0,1-12.3,8c6.74,5.51,18.38,11.39,30.27,11.39,17.5,0,30.74-11.45,38.28-33.13l8.16-21.49h84.36l7.74,20.64c8.77,22.54,22.43,34,40.6,34,14.65,0,29.12-7.93,35.29-15.4q.31-.37.57-.72A6,6,0,0,0,1131.48,522.44ZM976.71,438l27.07-70,27.08,70Z" transform="translate(-58.63 -295.59)"/>
  <path class="cls-6" d="M58.63,474.05c0,10.31,7.3,17.72,17.46,17.72S93.6,484.41,93.6,474.1s-7.3-17.72-17.51-17.72S58.63,463.74,58.63,474.05Zm26.43,0c0,4.9-3.55,8.12-9,8.12s-9-3.16-9-8.07,3.67-8.12,9-8.12S85.06,469.2,85.06,474.05ZM70.49,496.44Zm0,0h0a11.67,11.67,0,0,0-11.35,11.67v13c0,3.28,1.9,5,5.49,5H90.06c1.71,0,2.7-1.92,3-3.37a6.54,6.54,0,0,0-.82-5,2.71,2.71,0,0,0-2.2-1.41H82.72v-8.11a11.79,11.79,0,0,0-7.94-11.15,12.07,12.07,0,0,0-4.3-.64Zm3.7,10.71a6,6,0,0,1,1.15,3.93v5.42H66.27v-5.31a6.87,6.87,0,0,1,.81-3.59,3.72,3.72,0,0,1,2.41-1.69A4.77,4.77,0,0,1,74.19,507.15ZM84,392.7a2.15,2.15,0,0,0-.46,1.36v12.61H77l-7.22-.16h-7.5A2.12,2.12,0,0,0,61,407a6.25,6.25,0,0,0,0,8.84,2.12,2.12,0,0,0,1.35.46H87.75c3.49,0,5.38-1.64,5.48-4.74a1.48,1.48,0,0,0,0-.21v-.06h0V394.06a2.15,2.15,0,0,0-.46-1.36,6.25,6.25,0,0,0-8.82,0ZM61.64,362.42h0c-1.33.41-2.63,1.21-2.63,6.14s1.27,5.94,2.63,6.35h0L90.25,386a.81.81,0,0,0,.82-.13l.11-.08A7.09,7.09,0,0,0,93.24,381c0-2.45-1.6-4.29-4.62-5.35l-3-1.14V362.78l2.88-1.08c3.14-1.23,4.74-3.13,4.74-5.67a7,7,0,0,0-2.15-4.93L91,351a.84.84,0,0,0-.81-.1Zm16.74,10.1-9.77-3.78L78.38,365Zm-7.89,49ZM90.3,317.35a18.51,18.51,0,0,1-9.2,4.94,11.68,11.68,0,0,0-10.3-6.17h-.32A11.67,11.67,0,0,0,59.13,327.8v13c0,3.28,1.9,5,5.49,5H90.06a2.12,2.12,0,0,0,1.35-.46,6.25,6.25,0,0,0,0-8.84,2.12,2.12,0,0,0-1.35-.46h-7.5V332.1c10.82-3,10.67-9.84,10.67-9.84a6.69,6.69,0,0,0-1.86-4.92.76.76,0,0,0-1.06,0Zm-15,13.42v5.42H66.27v-5.31c0-3.6,1.53-5.42,4.56-5.42C72.52,325.46,75.34,326.15,75.34,330.77Zm-4.85,90.76h0a11.67,11.67,0,0,0-11.35,11.66v13c0,3.28,1.9,5,5.49,5H90.06c1.71,0,2.7-1.92,3-3.37a6.54,6.54,0,0,0-.82-5,2.71,2.71,0,0,0-2.2-1.41H82.72v-8.11a11.79,11.79,0,0,0-7.94-11.15,12.07,12.07,0,0,0-4.3-.64Zm3.7,10.71a6,6,0,0,1,1.15,3.93v5.42H66.27v-5.31a6.85,6.85,0,0,1,.81-3.59A3.72,3.72,0,0,1,69.49,431,4.75,4.75,0,0,1,74.19,432.24Z" transform="translate(-58.63 -295.59)"/>
  <path class="cls-7" d="M321.79,531.24a15.43,15.43,0,0,0,3.33-9.76V443.54L294.41,523a6,6,0,0,0,.89,5.89q.29.36.63.75c2.86,3.26,8.19,7.23,14.7,10.24A32.68,32.68,0,0,0,321.79,531.24Z" transform="translate(-58.63 -295.59)"/>
  <path class="cls-8" d="M544.24,529c.21-.25.4-.49.58-.72a6,6,0,0,0,.75-5.83l-31.16-77.32v76.36a15.48,15.48,0,0,0,3.32,9.76,32.66,32.66,0,0,0,11.2,8.62C535.52,536.91,541,532.89,544.24,529Z" transform="translate(-58.63 -295.59)"/>
  <path class="cls-9" d="M727.79,383c0-.77,0-1.53-.06-2.3A83.57,83.57,0,0,0,719.64,347c-14,20.57-21.51,46.1-21.51,73.79a152.06,152.06,0,0,0,2,24.57A83.68,83.68,0,0,0,727.79,383Z" transform="translate(-58.63 -295.59)"/>
  <path class="cls-10" d="M919.06,487.6c0-8.86-3.69-16.47-11-22.61a43.32,43.32,0,0,0-4.15-3.09L880.33,523a6,6,0,0,0,.89,5.89c.19.24.4.49.62.75a30.41,30.41,0,0,0,3.62,3.41,80,80,0,0,0,12.3-8C913.46,512.46,919.06,497.46,919.06,487.6Z" transform="translate(-58.63 -295.59)"/>
</svg>
